<svg width="106" height="37" viewBox="0 0 106 37" fill="none" xmlns="http://www.w3.org/2000/svg">
<path d="M2.862 33.6364V11.9207H9.063V33.6364H2.862ZM5.9625 8.89345C4.823 8.89345 3.8955 8.55709 3.18 7.88436C2.4645 7.21164 2.10675 6.37745 2.10675 5.38182C2.10675 4.38618 2.4645 3.552 3.18 2.87927C3.8955 2.20654 4.823 1.87018 5.9625 1.87018C7.102 1.87018 8.0295 2.19309 8.745 2.83891C9.4605 3.45782 9.81825 4.26509 9.81825 5.26073C9.81825 6.31018 9.4605 7.18473 8.745 7.88436C8.056 8.55709 7.1285 8.89345 5.9625 8.89345ZM10.9623 17.0873L13.5858 7.4L14.4603 11.0731C13.3208 11.0731 12.3801 10.7367 11.6381 10.064C10.9226 9.36436 10.5648 8.42254 10.5648 7.23854C10.5648 6.08145 10.9358 5.15309 11.6778 4.45345C12.4198 3.72691 13.3341 3.36363 14.4206 3.36363C15.5336 3.36363 16.4478 3.72691 17.1633 4.45345C17.8788 5.15309 18.2366 6.08145 18.2366 7.23854C18.2366 7.58836 18.2101 7.93818 18.1571 8.288C18.1306 8.61091 18.0378 9.00109 17.8788 9.45854C17.7463 9.916 17.5211 10.5215 17.2031 11.2749L14.8976 17.0873H10.9623ZM47.0441 11.5978C48.7401 11.5978 50.2374 11.9476 51.5359 12.6473C52.8609 13.32 53.8944 14.3695 54.6364 15.7956C55.4049 17.1949 55.7891 18.9978 55.7891 21.2044V33.6364H49.5881V22.1731C49.5881 20.424 49.2304 19.1324 48.5149 18.2982C47.7994 17.464 46.7924 17.0469 45.4939 17.0469C44.5929 17.0469 43.7846 17.2622 43.0691 17.6927C42.3536 18.0964 41.7971 18.7153 41.3996 19.5495C41.0021 20.3836 40.8034 21.4465 40.8034 22.7382V33.6364H34.6024V22.1731C34.6024 20.424 34.2446 19.1324 33.5291 18.2982C32.8401 17.464 31.8464 17.0469 30.5479 17.0469C29.6469 17.0469 28.8386 17.2622 28.1231 17.6927C27.4076 18.0964 26.8511 18.7153 26.4536 19.5495C26.0561 20.3836 25.8574 21.4465 25.8574 22.7382V33.6364H19.6564V11.9207H25.5791V17.8542L24.4661 16.1185C25.2081 14.6385 26.2549 13.5218 27.6064 12.7684C28.9844 11.988 30.5479 11.5978 32.2969 11.5978C34.2579 11.5978 35.9671 12.1091 37.4246 13.1316C38.9086 14.1273 39.8891 15.6611 40.3661 17.7331L38.1799 17.1276C38.8954 15.4324 40.0349 14.0869 41.5984 13.0913C43.1884 12.0956 45.0036 11.5978 47.0441 11.5978ZM68.896 33.9593C66.617 33.9593 64.5898 33.4749 62.8143 32.5062C61.0653 31.5375 59.674 30.2189 58.6405 28.5505C57.6335 26.8553 57.13 24.9313 57.13 22.7785C57.13 20.5989 57.6335 18.6749 58.6405 17.0065C59.674 15.3113 61.0653 13.9927 62.8143 13.0509C64.5898 12.0822 66.617 11.5978 68.896 11.5978C71.1485 11.5978 73.1625 12.0822 74.938 13.0509C76.7135 13.9927 78.1048 15.2978 79.1118 16.9662C80.1188 18.6345 80.6223 20.572 80.6223 22.7785C80.6223 24.9313 80.1188 26.8553 79.1118 28.5505C78.1048 30.2189 76.7135 31.5375 74.938 32.5062C73.1625 33.4749 71.1485 33.9593 68.896 33.9593ZM68.896 28.7927C69.9295 28.7927 70.857 28.5505 71.6785 28.0662C72.5 27.5818 73.1493 26.8956 73.6263 26.0076C74.1033 25.0927 74.3418 24.0164 74.3418 22.7785C74.3418 21.5138 74.1033 20.4375 73.6263 19.5495C73.1493 18.6615 72.5 17.9753 71.6785 17.4909C70.857 17.0065 69.9295 16.7644 68.896 16.7644C67.8625 16.7644 66.935 17.0065 66.1135 17.4909C65.292 17.9753 64.6295 18.6615 64.126 19.5495C63.649 20.4375 63.4105 21.5138 63.4105 22.7785C63.4105 24.0164 63.649 25.0927 64.126 26.0076C64.6295 26.8956 65.292 27.5818 66.1135 28.0662C66.935 28.5505 67.8625 28.7927 68.896 28.7927ZM87.1125 29.1964L87.2715 21.5273L97.2487 11.9207H104.642L95.0625 21.8098L91.8427 24.4738L87.1125 29.1964ZM81.9847 33.6364V3.68655H88.1857V33.6364H81.9847ZM97.9245 33.6364L90.69 24.5142L94.5855 19.6302L105.437 33.6364H97.9245Z" fill="url(#paint0_linear_4_169)"/>
<defs>
<linearGradient id="paint0_linear_4_169" x1="4.78412e-07" y1="21.8636" x2="106.005" y2="20.5748" gradientUnits="userSpaceOnUse">
<stop stop-color="#0A6CFF"/>
<stop offset="0.991729" stop-color="#BC2222"/>
</linearGradient>
</defs>
</svg>
